<svg width="28" height="28" viewBox="0 0 28 28" fill="none" xmlns="http://www.w3.org/2000/svg"><path d="M23.844 3.281h-4.102v-.82A2.464 2.464 0 0 0 17.282 0h-6.563a2.464 2.464 0 0 0-2.461 2.46v.821H4.156a2.464 2.464 0 0 0-2.46 2.461c0 1.09.712 2.016 1.695 2.339l1.463 17.662A2.475 2.475 0 0 0 7.306 28h13.387c1.27 0 2.348-.991 2.453-2.257l1.463-17.662a2.465 2.465 0 0 0 1.696-2.339 2.464 2.464 0 0 0-2.461-2.46zm-13.946-.82c0-.452.368-.82.82-.82h6.563a.82.82 0 0 1 .82.82v.82H9.899v-.82zm11.613 23.146a.825.825 0 0 1-.817.752H7.306a.825.825 0 0 1-.817-.751L5.047 8.203h17.906L21.51 25.607zm2.333-19.044H4.156a.821.821 0 0 1 0-1.641h19.688a.821.821 0 0 1 0 1.64z" fill="#E61717"/><path d="M10.717 23.848l-.82-13.235a.821.821 0 0 0-1.638.102l.82 13.234a.82.82 0 0 0 1.638-.101zM14 9.844a.82.82 0 0 0-.82.82v13.234a.82.82 0 1 0 1.64 0V10.664a.82.82 0 0 0-.82-.82zm4.973.001a.82.82 0 0 0-.87.768l-.82 13.235a.82.82 0 0 0 1.637.101l.82-13.234a.82.82 0 0 0-.767-.87z" fill="#E61717"/></svg>