<svg width="64" height="64" viewBox="0 0 64 64" fill="none" xmlns="http://www.w3.org/2000/svg"><path d="M56.282 23.026c.023-.366.038-.735.038-1.106C56.32 12.038 48.279 4 38.4 4c-7.127 0-13.553 4.255-16.392 10.716a8.628 8.628 0 0 0-2.808-.476c-4.575 0-8.361 3.446-8.886 7.98C4.364 23.39 0 28.584 0 34.72c0 7.058 5.742 12.8 12.8 12.8h11.52a1.28 1.28 0 0 0 0-2.56H12.8c-5.647 0-10.24-4.593-10.24-10.24 0-5.194 3.917-9.546 9.114-10.12.647-.071 1.126-.747 1.126-1.4 0-3.528 2.872-6.4 6.4-6.4.986 0 1.971.25 2.926.745.328.174.714.19 1.063.054.343-.136.611-.418.734-.766C26.081 10.69 31.9 6.56 38.4 6.56c8.471 0 15.36 6.889 15.36 15.36 0 .61-.046 1.208-.115 1.8a1.28 1.28 0 0 0 .857 1.359c4.15 1.423 6.938 5.297 6.938 9.641 0 5.647-4.593 10.24-10.24 10.24H39.68a1.28 1.28 0 0 0 0 2.56H51.2c7.058 0 12.8-5.742 12.8-12.8 0-5.1-3.062-9.68-7.718-11.694z" fill="#39F"/><path d="M32 27.04a1.28 1.28 0 0 0-1.28 1.28v30.4a1.28 1.28 0 0 0 2.56 0v-30.4A1.28 1.28 0 0 0 32 27.04z" fill="#39F"/><path d="M43.146 37.654l-10.24-10.24a1.28 1.28 0 0 0-1.81 0l-10.24 10.24a1.28 1.28 0 0 0 1.81 1.81L32 30.13l9.334 9.336a1.285 1.285 0 0 0 1.812-.002c.5-.5.5-1.311 0-1.81z" fill="#39F"/></svg>