<svg width="28" height="28" viewBox="0 0 28 28" fill="none" xmlns="http://www.w3.org/2000/svg"><path d="M22.696 12.14a.82.82 0 0 0-.82.82v12.032c0 .754-.614 1.367-1.367 1.367H3.008a1.369 1.369 0 0 1-1.367-1.367v-17.5a1.37 1.37 0 0 1 1.367-1.368H15.04a.82.82 0 1 0 0-1.64H3.008A3.011 3.011 0 0 0 0 7.492v17.5A3.011 3.011 0 0 0 3.008 28h17.5a3.011 3.011 0 0 0 3.008-3.008V12.96a.82.82 0 0 0-.82-.82z" fill="#39F"/><path d="M27.44 2.107L25.893.56a1.916 1.916 0 0 0-2.707 0L10.812 12.935a.82.82 0 0 0-.225.419l-.773 3.867a.82.82 0 0 0 .965.965l3.867-.773a.82.82 0 0 0 .42-.225L27.44 4.814a1.916 1.916 0 0 0 0-2.707zM14.08 15.852l-2.416.484.483-2.417L22.22 3.847l1.934 1.933-10.072 10.072zm12.2-12.199l-.967.967-1.933-1.933.966-.967a.274.274 0 0 1 .387 0l1.547 1.547a.274.274 0 0 1 0 .386z" fill="#39F"/></svg>